<?xml version="1.0" encoding="UTF-8"?>
<svg id="Personal_Icon" data-name="Personal Icon" xmlns="http://www.w3.org/2000/svg" xmlns:xlink="http://www.w3.org/1999/xlink" viewBox="0 0 4041.71 2547.1">
  <defs>
    <style>
      .cls-1 {
        filter: url(#drop-shadow-2);
      }

      .cls-1, .cls-2 {
        fill: #721c1c;
      }

      .cls-3, .cls-4 {
        fill: #424dd3;
      }

      .cls-4 {
        filter: url(#outer-glow-5);
      }

      .cls-5 {
        filter: url(#outer-glow-1);
      }

      .cls-6 {
        fill: #ecedda;
      }

      .cls-7 {
        fill: #e0ddcf;
      }

      .cls-8 {
        fill: #1b161c;
      }

      .cls-9 {
        fill: #2d232e;
        filter: url(#drop-shadow-4);
      }

      .cls-10, .cls-11 {
        fill: #d64045;
      }

      .cls-11 {
        filter: url(#drop-shadow-3);
      }
    </style>
    <filter id="outer-glow-1" filterUnits="userSpaceOnUse">
      <feOffset dx="0" dy="0"/>
      <feGaussianBlur result="blur" stdDeviation="10"/>
      <feFlood flood-color="#4ec9dd" flood-opacity="1"/>
      <feComposite in2="blur" operator="in"/>
      <feComposite in="SourceGraphic"/>
    </filter>
    <filter id="drop-shadow-2" filterUnits="userSpaceOnUse">
      <feOffset dx="-2" dy="-15"/>
      <feGaussianBlur result="blur-2" stdDeviation="8"/>
      <feFlood flood-color="#000" flood-opacity=".51"/>
      <feComposite in2="blur-2" operator="in"/>
      <feComposite in="SourceGraphic"/>
    </filter>
    <filter id="drop-shadow-3" filterUnits="userSpaceOnUse">
      <feOffset dx="-2" dy="14"/>
      <feGaussianBlur result="blur-3" stdDeviation="8"/>
      <feFlood flood-color="#000" flood-opacity=".55"/>
      <feComposite in2="blur-3" operator="in"/>
      <feComposite in="SourceGraphic"/>
    </filter>
    <filter id="drop-shadow-4" filterUnits="userSpaceOnUse">
      <feOffset dx="-2" dy="18"/>
      <feGaussianBlur result="blur-4" stdDeviation="8"/>
      <feFlood flood-color="#000" flood-opacity=".51"/>
      <feComposite in2="blur-4" operator="in"/>
      <feComposite in="SourceGraphic"/>
    </filter>
    <filter id="outer-glow-5" filterUnits="userSpaceOnUse">
      <feOffset dx="0" dy="0"/>
      <feGaussianBlur result="blur-5" stdDeviation="10"/>
      <feFlood flood-color="#4ec9dd" flood-opacity="1"/>
      <feComposite in2="blur-5" operator="in"/>
      <feComposite in="SourceGraphic"/>
    </filter>
  </defs>
  <g id="personal_icon" data-name="personal icon">
    <g id="clock">
      <g id="head_background" data-name="head background">
        <path class="cls-8" d="M2411.47,1317.46c53.68,33.14,106.42,103.2,87.08,251.3-.75,5.75-1.84,11.45-3.22,17.07-8.78,35.69-45.83,169.46-128.42,265.55-96.09,111.8-169.54,92.83-170.86,92.48-.93-.24-71.9-72.77-114.16-116.02-20.13-20.6-34.23-46.6-40.72-75.07-6.86-30.1-14.8-65.25-15.17-68.31-.4-3.24-2.44-27.49-4.03-46.49-1.28-15.38-.35-30.88,2.78-45.98l20.96-101.22c9.7-46.84,39.71-86.49,81.42-107.57l141.1-71.31c45.63-23.06,99.65-21.34,143.25,5.57Z"/>
      </g>
      <g id="clock_teeth" data-name="clock teeth">
        <path class="cls-7" d="M2431.47,1561.67l-1.16,21.95,52.87,5.15s5.49-28.93,2.99-32.59l-54.7,5.49Z"/>
        <path class="cls-7" d="M2422.17,1648.47l-10.15,17.34s12.39,17.66,17.53,29.39c5.14,11.73,9.41,5.98,9.41,5.98,0,0,17.25-24.63,15.15-31.87-2.1-7.24-31.95-20.84-31.95-20.84Z"/>
        <path class="cls-7" d="M2441.93,1461.02l7.75,25.61,35.44-6.74s-5.2-29.98-9.78-31.82l-33.42,12.96Z"/>
      </g>
      <g id="clock_hands" data-name="clock hands">
        <path class="cls-6" d="M2335.33,1583.49s32.92,77.15,40.24,78.48,13.63,0,13.63,0l59.19,159.62-93.11-139s3.33-2,2.99-14.96c-.33-12.97-37.33-95.48-37.33-95.48l5.4-2.29,2.33-1.77,6.65,15.41Z"/>
        <path class="cls-7" d="M2328.11,1542.74s118.96-136.83,135.25-142.15c16.29-5.32,25.61-6.65,25.61-6.65l83.47-147.65-136.34,103.54s5.65,20.74-4.32,35.91-114.73,149.85-114.73,149.85l11.07,7.14Z"/>
      </g>
      <g id="clock_accents" data-name="clock accents" class="cls-5">
        <path class="cls-3" d="M2446.43,1377.33s60.2,1.38,52.02-38.18l14.77-4.75s-51.03-20.84-52.75,33.23l-14.04,9.69Z"/>
      </g>
    </g>
    <g id="demon_head" data-name="demon head">
      <g id="Jaw_and_Ear" data-name="Jaw and Ear">
        <g id="bottom_teeth" data-name="bottom teeth">
          <path class="cls-6" d="M2189.61,1905.17l-26.98-112.4s42.79,47.22,55.42,81.58l6.87,16.41s-7.98-35.47-2.44-41.79,7.09-4.99,7.09-4.99c0,0-.44,9.53,3.1,11.97s19.29,2.66,19.29,2.66l2.88,2.88s-1.33-7.98,3.33-9.09,27.49-4.88,27.49-4.88v11.53l3.77-10.09s28.82,1.88,29.26,4.77,0,8.65,0,8.65c0,0,8.87-3.99,13.08-5.99s8.87-5.76,8.87-5.76c0,0,5.76,4.88,2.88,16.85s-7.76,22.39-7.76,22.39c0,0-64.07,9.09-69.17,9.09s-54.76,37.91-55.2,39.24-14.41-8.87-17.07-14.19-4.72-18.84-4.72-18.84Z"/>
        </g>
        <g id="bottom_gum" data-name="bottom gum">
          <path class="cls-10" d="M2178.28,1881.53s23.05,19.14,50.37,11.6,62.05-8,67.55-4.92-64.13,40.26-68.61,44.22-32.18,9.76-32.7,8.44-16.62-59.34-16.62-59.34Z"/>
        </g>
        <path class="cls-1" d="M2003.81,1537.61s13.75-28.38,7.54-46.56c-6.21-18.18-36.8-73.6-36.8-73.6,0,0,6.65,157.4,0,170.7s36.8,56.42,39.79,76.04c2.99,19.62,34.58,165.27,39.24,168.27s126.7,89.12,133.68,110.74c6.98,21.62,54.54,29.93,54.54,29.93,0,0,63.18-4.66,68.84-10.31,5.65-5.65,144.66-213.16,143.66-212.83s-66.84,81.31-66.34,70.17,23.44-49.38,22.11-48.55c0,0-63.18,118.05-77.48,112.4s-78.15-8.31-98.1,4.66c-19.95,12.97-24.44,40.9-24.44,40.9,0,0-33.92-63.52-37.41-65.01,0,0-13.8,4.32-14.13,7.15s-2.33-12.47-2.33-12.47c0,0-167.43-209.67-116.67-233.39,50.77-23.72-35.69-88.23-35.69-88.23Z"/>
        <g id="jaw_highlights" data-name="jaw highlights">
          <polygon class="cls-10" points="2048.78 1773.66 2061.44 1821.13 2120.25 1859.64 2067.77 1814.8 2048.78 1773.66"/>
          <path class="cls-10" d="M2214.07,1935.82l8.77,20.34,92.04-13.98s-83.08,5.27-83.87,6.07-16.95-12.43-16.95-12.43Z"/>
        </g>
      </g>
      <g id="face">
        <g id="upper_teeth" data-name="upper teeth">
          <g id="top_teeth" data-name="top teeth">
            <path class="cls-6" d="M2112.09,1697.33s-11.31,46.56-123.93,103.53c0,0,143.88-37.24,168.49-70.5,24.61-33.25-24.16-43.01-24.16-43.01l-20.4,9.98Z"/>
            <path class="cls-6" d="M2171.39,1728.31s-64.35,89.95-74.49,95.11c0,0,100.26-41.4,107.58-67.51s-33.09-27.6-33.09-27.6Z"/>
            <path class="cls-6" d="M2218.61,1759.18l-8.31,31.92s15.19,6.98,29.37,1.55l6.21-2.22v5.99s40.13,15.08,46.56,9.2l3.77-44.89-77.59-1.55Z"/>
          </g>
          <path class="cls-2" d="M2102.32,1696.82c20.21-1.93,36.62,9.4,51.43,28.22,0,0,8.29-20.84,4.74-28.22s-27.68-18.2-33.62-16.48-22.55,16.48-22.55,16.48Z"/>
        </g>
        <path id="base_color" data-name="base color" class="cls-11" d="M2318.93,1313.07l37.69,120.6s-20.84,27.93-22.61,52.76c-1.77,24.83-13.97,207.51,14.63,194.2,0,0,15.96-3.99,13.3-16.96,0,0,31.92,35.58,28.93,59.19,0,0-11.86-15.63-38.46,0,0,0,1.22,32.26,21.5,22.61l-27.1,26.94s-69.11-13.3-94.39-6.65c-25.27,6.65-52.54-9.09-52.54-9.09,0,0-15.74-28.82-27.27-24.61s-21.73-5.1-21.73-5.1c0,0-11.58-31.37-21.39-32.87l-27.1,4.32-114.23-103.59s35.25,10.64,35.91,3.99-23.94-56.09-23.94-56.09c0,0,54.98-22.61,55.65-22.17s263.15-207.51,263.15-207.51Z"/>
        <path class="cls-2" d="M2328.77,1482.73l-21.82,81.36s6.43-2.66,6.87,0c.44,2.66-11.31,142.55-11.31,142.55l2,25.49-38.13-27.71,7.32-6.6,30.37-110.02s-28.6,82.25-58.75,80.25-13.52-16.85-13.52-16.85c0,0-47,5.1-47.22,28.16-.22,23.06,0,26.6,0,26.6,0,0,2.22-10.64,26.38-9.53s43.9,13.3,43.9,13.3c0,0,47.05,36.3,50.3,36.14,3.24-.17,53.12-30.09,53.12-30.09,0,0-49.8,17.79-49.88,17.29-.08-.5,4.32-27.6,4.32-27.6,0,0-3.33-11.97-1-32.42,2.33-20.45,17.05-190.32,17.05-190.32Z"/>
        <polygon class="cls-2" points="2086.92 1559.55 2118.18 1617.63 2115.08 1625.84 2125.94 1623.18 2225.93 1639.36 2131.26 1616.52 2129.21 1608.54 2123.56 1610.37 2086.92 1559.55"/>
        <path class="cls-2" d="M2242.22,1401.59s30.26,34.92,39.24,24.61c8.98-10.31,9.98-13.97,9.98-13.97,0,0,9.31,83.8-3.33,90.12s-19.63,12.64-19.63,12.64h-126.36s15.89,15.3,40.37,16.63,83.67,15.52,88.99,9.75,39.24-17.74,34.92-77.26c-4.32-59.52-5.99-72.16-5.99-72.16,0,0-1.33,12.64-3.99,8.65s-22.28-41.9-22.28-41.9l-31.92,42.9Z"/>
      </g>
      <g id="hair">
        <path class="cls-9" d="M2001.79,1472.09c.33,.67,15.46,21.12,7.98,42.4s-13.97,34.09-13.97,34.09c0,0,63.35-20.78,63.35-17.79s-2.49,10.7-2,10.59,134.29-37.24,184.39-111.07c50.1-73.82,91.45-138.28,89.79-141.77s-15.63-7.15-11.47-18.62c4.16-11.47,18.29-22.28,18.29-22.28,0,0,7.09-18.42-14.3-23.61-22.94-5.57-185.53,8.88-247.47,77.48-55.08,61-78.85,163.37-74.6,170.59Z"/>
      </g>
      <g id="horn">
        <path class="cls-2" d="M2183.19,1324.94s-89.51-23-124.09-68.23-76.48-145.87-63.29-183.12c0,0-62.63,128.58,15.41,242.98,78.04,114.39,108.19,119.27,108.19,119.27,53.57-9.47,80.57-41.56,63.79-110.9Z"/>
        <g id="horn_highlights" data-name="horn highlights">
          <path class="cls-10" d="M2037.44,1267.68s68.57,88.88,85.32,95.6c16.75,6.73,23.87,13.32,23.87,13.32l-19.12-18.59c-16.76-6.59-53.25-50.72-90.07-90.33Z"/>
          <path class="cls-10" d="M1990.23,1098.5s11.08,122.11,26.37,138.99l-8.44-39.56-17.93-99.43Z"/>
        </g>
      </g>
      <g id="eye">
        <path id="eye_white" data-name="eye white" class="cls-7" d="M2042.03,1400.59c.22,.67,100.25,189.56,100.25,189.56,0,0,73.68,57.16,113.42,14.74,0,0,15.85-4.69,28.8-4.02,12.95,.67,11.39-6.25,11.39-6.25,0,0-33.49-43.54-33.27-49.57,.22-6.03-35.05-10.27-38.85-10.27s-56.04-2.01-70.55-13.84c-14.51-11.83-28.36-20.32-27.69-19.65s7.37,29.69-2.01,18.98-81.49-119.67-81.49-119.67Z"/>
        <path id="iris" class="cls-4" d="M2137.53,1537.23s20.51,17.74,21.17,22.5,1.22,35.8,21.62,43.34c20.4,7.54,40.4,14.08,46.86-1.22,0,0,3.02-5.32,12.78-4.21s13.3,1.22,13.3,1.22c0,0-21.12-7.21-22.95-11.2-1.83-3.99-4.32-33.92-25.44-38.24-21.12-4.32-37.24,4.82-37.24,4.82l-30.09-17.02Z"/>
      </g>
    </g>
  </g>
</svg>